<?xml version="1.0" encoding="UTF-8" ?>
<!DOCTYPE svg PUBLIC "-//W3C//DTD SVG 1.1//EN" "http://www.w3.org/Graphics/SVG/1.1/DTD/svg11.dtd">
<svg width="2108pt" height="703pt" viewBox="0 0 2108 703" version="1.1" xmlns="http://www.w3.org/2000/svg">
<g id="#eaeaeaff">
<path fill="#eaeaea" opacity="1.00" d=" M 1467.27 130.48 C 1507.53 125.55 1547.78 120.56 1588.02 115.52 C 1585.94 121.94 1583.15 128.10 1580.87 134.44 C 1571.30 160.15 1561.09 185.64 1551.18 211.23 C 1532.52 213.21 1513.82 214.94 1495.19 217.16 C 1488.58 217.26 1482.05 218.32 1475.48 218.86 C 1472.80 189.39 1469.93 159.95 1467.27 130.48 Z" />
<path fill="#eaeaea" opacity="1.00" d=" M 187.07 121.93 C 200.72 120.97 214.36 119.92 228.02 119.02 C 226.47 121.52 224.88 123.98 223.45 126.55 C 215.44 139.84 207.09 152.92 198.86 166.08 C 195.47 170.91 192.53 176.04 189.34 181.00 C 188.57 161.31 187.79 141.62 187.07 121.93 Z" />
<path fill="#eaeaea" opacity="1.00" d=" M 1639.50 122.51 C 1722.75 122.21 1806.00 121.88 1889.26 121.67 C 1889.68 126.47 1890.10 131.28 1890.78 136.05 C 1896.92 201.68 1903.09 267.31 1909.18 332.95 C 1816.09 358.01 1723.02 383.16 1629.92 408.23 C 1629.86 419.54 1630.35 430.85 1630.28 442.16 C 1635.29 442.28 1640.30 442.06 1645.32 442.23 C 1738.91 442.03 1832.51 441.30 1926.10 440.93 C 1926.59 444.94 1927.01 448.96 1927.68 452.95 C 1928.40 457.57 1928.93 462.23 1929.42 466.89 C 1883.87 485.36 1838.41 504.09 1792.90 522.66 C 1791.32 523.33 1789.63 523.43 1787.98 523.43 C 1675.30 523.31 1562.61 523.55 1449.93 523.31 C 1444.34 523.12 1438.75 523.25 1433.17 523.23 C 1435.53 499.11 1438.11 475.00 1440.51 450.88 C 1440.51 448.43 1442.26 446.56 1443.50 444.61 C 1446.75 439.69 1450.16 434.86 1453.27 429.84 C 1475.45 396.23 1498.07 362.90 1520.32 329.32 C 1521.25 327.99 1522.13 326.34 1523.92 326.05 C 1595.24 304.32 1666.56 282.54 1737.88 260.82 C 1738.33 260.69 1739.22 260.43 1739.66 260.29 C 1739.92 249.50 1739.84 238.70 1739.53 227.91 C 1739.32 224.07 1739.35 220.23 1739.41 216.40 C 1692.98 215.46 1646.53 214.99 1600.11 213.99 C 1594.16 213.66 1588.20 213.79 1582.25 213.57 C 1601.37 183.23 1620.46 152.89 1639.50 122.51 Z" />
<path fill="#eaeaea" opacity="1.00" d=" M 397.61 124.42 C 414.68 124.35 431.74 124.45 448.81 124.37 C 449.25 128.65 449.42 132.96 449.93 137.24 C 456.30 216.91 462.31 296.61 468.45 376.29 C 447.84 376.30 427.23 376.28 406.62 376.30 C 402.55 376.33 398.48 376.33 394.41 376.32 C 393.33 339.80 392.68 303.26 391.75 266.73 C 391.52 257.24 391.43 247.74 391.00 238.25 C 368.74 269.35 346.82 300.71 324.64 331.87 C 324.24 332.42 323.43 333.52 323.02 334.07 C 304.20 308.28 285.69 282.26 266.91 256.44 C 262.96 250.89 259.11 245.27 254.88 239.93 C 253.56 285.38 252.34 330.83 251.15 376.28 C 231.44 376.33 211.73 376.26 192.02 376.31 C 187.53 376.34 183.05 376.34 178.56 376.32 C 182.22 323.83 185.75 271.33 189.62 218.86 C 190.48 211.72 190.41 204.49 191.40 197.38 C 211.17 173.85 231.17 150.51 251.03 127.06 C 253.01 130.18 254.88 133.38 256.97 136.44 C 278.51 170.59 299.67 205.00 321.11 239.21 C 322.24 241.09 323.48 238.72 324.13 237.70 C 327.52 232.40 330.85 227.05 334.43 221.88 C 355.68 189.52 376.55 156.90 397.61 124.42 Z" />
<path fill="#eaeaea" opacity="1.00" d=" M 489.57 124.41 C 550.80 124.43 612.04 124.30 673.27 124.48 C 673.43 128.73 673.57 132.99 673.96 137.23 C 678.17 216.91 682.04 296.60 686.04 376.28 C 622.10 376.32 558.17 376.27 494.23 376.31 C 489.79 376.34 485.34 376.33 480.90 376.29 C 482.75 325.83 484.15 275.35 486.14 224.90 C 487.43 191.41 488.43 157.91 489.57 124.41 M 550.95 175.92 C 552.02 224.81 552.81 273.71 553.81 322.61 C 557.63 322.42 561.47 322.38 565.30 322.22 C 581.40 321.58 597.50 321.01 613.61 320.52 C 613.62 289.52 613.24 258.51 613.47 227.51 C 613.51 215.04 613.55 202.55 613.32 190.08 C 613.09 185.94 613.21 181.80 613.16 177.67 C 592.43 177.03 571.69 176.52 550.95 175.92 Z" />
<path fill="#eaeaea" opacity="1.00" d=" M 722.65 124.41 C 773.57 124.43 824.50 124.30 875.43 124.48 C 876.30 128.74 877.19 133.01 878.30 137.23 C 883.82 161.15 888.98 185.16 894.36 209.11 C 896.56 219.59 899.27 229.97 901.12 240.51 C 896.87 241.79 892.64 243.15 888.45 244.59 C 894.48 268.41 900.92 292.15 906.69 316.02 C 904.10 325.99 900.36 335.67 897.38 345.55 C 893.99 355.79 890.81 366.11 887.31 376.32 C 828.77 376.25 770.24 376.32 711.70 376.29 C 707.13 376.32 702.57 376.34 698.01 376.26 C 702.74 327.39 707.41 278.51 712.38 229.66 C 715.97 194.60 719.23 159.49 722.65 124.41 M 775.35 156.62 C 774.72 177.14 774.01 197.66 773.38 218.18 C 777.73 217.54 782.04 216.62 786.43 216.32 L 786.42 216.28 C 804.27 213.46 822.11 210.57 839.97 207.78 C 838.36 194.71 836.80 181.63 834.95 168.60 C 834.21 164.30 833.73 159.97 833.24 155.65 C 813.94 155.78 794.65 156.54 775.35 156.62 M 771.21 274.08 C 770.56 294.30 770.03 314.52 769.40 334.75 C 773.44 334.24 777.49 333.68 781.55 333.28 L 781.56 333.04 C 803.10 330.75 824.56 327.64 846.08 325.07 C 844.14 311.38 841.30 297.83 839.30 284.15 L 839.08 284.15 C 838.47 279.72 837.61 275.33 836.90 270.91 C 815.00 271.96 793.11 273.04 771.21 274.08 Z" />
<path fill="#eaeaea" opacity="1.00" d=" M 922.18 124.37 C 943.74 124.41 965.29 124.43 986.85 124.36 C 987.16 128.64 987.14 132.95 987.47 137.23 C 990.67 216.91 993.47 296.60 996.44 376.29 C 974.07 376.31 951.69 376.28 929.32 376.30 C 925.20 376.31 921.08 376.30 916.97 376.26 C 917.15 361.66 917.71 347.07 917.67 332.48 C 917.83 329.86 917.85 327.24 917.76 324.62 C 918.91 294.41 918.93 264.16 919.86 233.94 C 920.84 197.42 921.30 160.89 922.18 124.37 Z" />
<path fill="#eaeaea" opacity="1.00" d=" M 1017.94 124.27 C 1043.72 124.37 1069.50 124.15 1095.28 124.38 C 1094.77 128.65 1094.26 132.93 1094.00 137.24 C 1088.15 195.75 1081.92 254.23 1075.89 312.72 C 1080.23 312.72 1084.56 312.69 1088.90 312.56 C 1113.36 312.20 1137.83 311.84 1162.29 311.41 C 1162.93 315.27 1163.45 319.16 1164.12 323.02 C 1166.58 340.79 1169.32 358.52 1171.75 376.30 C 1122.05 376.28 1072.36 376.31 1022.67 376.28 C 1018.46 376.28 1014.26 376.29 1010.06 376.25 C 1011.54 329.46 1012.74 282.65 1014.43 235.86 C 1015.75 198.67 1016.64 161.46 1017.94 124.27 Z" />
<path fill="#eaeaea" opacity="1.00" d=" M 1195.38 124.92 C 1249.94 124.78 1304.49 124.88 1359.05 124.87 C 1359.35 129.14 1359.57 133.43 1360.05 137.69 C 1361.16 150.38 1361.94 163.09 1362.87 175.79 C 1331.34 176.70 1299.82 177.86 1268.29 178.68 C 1268.69 192.28 1269.15 205.87 1269.63 219.46 C 1271.72 219.70 1273.81 219.94 1275.93 220.22 C 1296.74 222.62 1317.61 224.64 1338.46 226.83 C 1338.26 233.61 1338.18 240.39 1338.23 247.18 C 1337.65 255.63 1337.69 264.11 1337.31 272.58 C 1315.98 273.73 1294.64 274.77 1273.30 275.73 C 1273.22 290.09 1273.62 304.43 1273.69 318.79 C 1277.49 319.07 1281.30 319.35 1285.11 319.68 C 1314.10 322.10 1343.13 324.09 1372.12 326.61 C 1372.25 330.67 1372.50 334.72 1372.82 338.77 C 1373.71 352.05 1374.36 365.34 1375.31 378.61 C 1317.62 378.13 1259.92 377.25 1202.23 376.59 C 1198.06 376.53 1193.90 376.47 1189.75 376.38 C 1190.67 330.80 1191.64 285.22 1192.78 239.65 C 1193.81 201.41 1194.53 163.16 1195.38 124.92 Z" />
<path fill="#eaeaea" opacity="1.00" d=" M 1443.44 349.36 C 1457.99 343.46 1472.51 337.48 1487.16 331.83 C 1478.00 350.47 1468.69 369.04 1459.46 387.66 C 1453.70 398.79 1448.59 410.28 1442.43 421.18 C 1442.70 397.24 1443.22 373.30 1443.44 349.36 Z" />
<path fill="#eaeaea" opacity="1.00" d=" M 428.11 452.81 C 428.37 436.50 428.84 420.19 429.55 403.90 C 445.36 404.06 461.17 403.84 476.98 403.98 C 476.61 408.38 476.14 412.78 475.65 417.17 C 473.12 440.95 470.33 464.70 467.98 488.49 C 476.03 487.93 484.09 489.25 492.13 488.34 C 499.25 488.17 506.38 488.01 513.50 488.09 C 514.16 493.75 514.81 499.43 515.74 505.05 C 516.58 510.98 517.30 516.93 518.05 522.88 C 491.61 522.85 465.16 523.03 438.72 522.79 C 434.49 522.59 430.25 522.73 426.02 522.64 C 426.74 499.36 427.52 476.09 428.11 452.81 Z" />
<path fill="#eaeaea" opacity="1.00" d=" M 628.46 404.15 C 661.60 403.94 694.74 404.13 727.88 404.07 C 728.21 408.43 728.41 412.80 728.64 417.17 C 730.66 452.18 732.78 487.19 734.68 522.20 C 702.13 522.14 669.57 522.33 637.02 522.11 C 632.83 521.88 628.64 521.94 624.46 521.97 C 625.28 497.43 626.32 472.89 627.08 448.34 C 627.24 433.60 628.18 418.89 628.46 404.15 M 663.28 432.91 C 663.85 452.68 664.17 472.47 664.74 492.24 C 668.56 492.66 672.40 492.07 676.23 492.19 C 682.36 492.26 688.48 491.89 694.60 491.75 C 694.51 476.76 694.51 461.77 694.41 446.77 C 694.36 446.51 694.26 445.97 694.21 445.70 C 694.18 441.68 694.17 437.65 694.16 433.63 C 683.87 433.30 673.57 433.14 663.28 432.91 Z" />
<path fill="#eaeaea" opacity="1.00" d=" M 858.28 404.38 C 885.29 404.54 912.31 404.34 939.32 404.49 C 940.26 408.82 941.23 413.14 942.22 417.47 C 945.35 431.12 948.22 444.84 951.45 458.48 C 949.43 459.22 947.41 459.94 945.40 460.68 C 948.17 471.79 951.42 482.83 953.82 494.02 C 951.20 503.49 947.79 512.76 944.88 522.15 C 916.63 522.14 888.37 522.29 860.12 522.08 C 855.72 521.83 851.31 521.96 846.91 521.92 C 849.43 495.64 852.16 469.37 854.52 443.08 C 855.59 430.17 856.94 417.27 858.28 404.38 M 887.95 420.06 C 887.64 429.22 887.22 438.39 887.15 447.57 C 890.47 446.89 893.87 446.62 897.14 445.71 C 903.92 445.33 910.60 443.90 917.28 442.78 L 916.52 441.86 C 916.25 438.41 915.62 434.99 915.50 431.54 L 915.29 431.63 C 914.76 427.63 914.26 423.64 913.80 419.64 C 905.18 419.57 896.57 420.00 887.95 420.06 M 886.04 474.96 C 885.81 483.98 885.56 492.99 885.23 502.00 C 889.31 501.57 893.38 500.89 897.49 500.59 C 904.93 499.86 912.31 498.66 919.76 497.92 C 919.22 494.14 918.61 490.38 917.80 486.66 C 916.85 482.32 916.22 477.92 915.46 473.55 C 905.65 473.97 895.84 474.46 886.04 474.96 Z" />
<path fill="#eaeaea" opacity="1.00" d=" M 1094.83 404.81 C 1123.02 404.75 1151.22 404.43 1179.41 404.47 C 1179.52 404.85 1179.74 405.63 1179.85 406.02 C 1188.93 445.38 1198.07 484.73 1207.09 524.11 C 1196.96 524.14 1186.84 524.34 1176.73 524.17 C 1173.66 524.04 1170.59 524.07 1167.54 524.09 C 1166.32 518.76 1165.32 513.38 1163.97 508.08 C 1162.92 504.04 1162.12 499.95 1161.22 495.89 C 1145.02 495.29 1128.83 494.39 1112.63 494.04 C 1110.97 504.21 1109.14 514.35 1107.33 524.49 C 1098.97 524.40 1090.61 524.62 1082.25 524.37 C 1077.35 524.17 1072.45 524.31 1067.55 524.27 C 1074.17 495.37 1080.85 466.50 1087.42 437.59 C 1089.69 426.62 1092.32 415.73 1094.83 404.81 M 1121.01 434.27 C 1118.70 445.41 1116.59 456.59 1114.37 467.75 C 1119.12 467.77 1123.87 467.36 1128.63 467.49 C 1139.25 467.42 1149.88 467.09 1160.51 466.77 C 1159.19 460.56 1158.22 454.28 1156.86 448.09 C 1155.75 443.34 1154.92 438.54 1154.01 433.76 C 1143.01 433.90 1132.01 434.19 1121.01 434.27 Z" />
<path fill="#eaeaea" opacity="1.00" d=" M 1299.98 404.07 C 1315.85 404.01 1331.72 404.08 1347.59 404.03 C 1344.58 432.19 1341.46 460.32 1338.42 488.47 C 1342.76 488.41 1347.10 488.34 1351.45 488.41 C 1362.29 488.43 1373.14 488.03 1383.99 488.03 C 1384.55 492.35 1385.00 496.69 1385.72 501.00 C 1386.84 508.28 1387.65 515.61 1388.57 522.92 C 1361.99 522.80 1335.41 523.06 1308.84 522.79 C 1304.75 522.60 1300.66 522.71 1296.59 522.67 C 1297.43 492.89 1298.52 463.10 1299.20 433.31 C 1299.27 423.56 1299.73 413.82 1299.98 404.07 Z" />
<path fill="#eaeaea" opacity="1.00" d=" M 171.23 458.64 C 172.45 440.59 174.04 422.56 175.61 404.54 C 228.17 404.59 280.74 404.53 333.31 404.57 C 333.57 408.96 333.73 413.36 333.93 417.76 C 334.25 424.49 334.58 431.21 334.81 437.95 C 298.24 438.37 261.67 438.92 225.11 439.59 C 224.19 456.88 222.94 474.15 222.10 491.44 C 226.35 491.55 230.59 491.65 234.84 491.87 C 248.57 492.42 262.32 492.81 276.06 492.91 C 281.55 493.07 287.04 493.19 292.54 493.41 C 292.71 489.60 292.80 485.79 292.94 481.99 C 285.36 481.46 277.76 481.28 270.18 480.64 C 265.89 480.24 261.58 480.08 257.27 479.88 C 257.61 472.13 258.27 464.40 258.57 456.65 C 258.62 455.12 258.68 453.59 258.76 452.07 C 265.49 452.63 272.20 451.42 278.95 451.73 C 296.22 451.43 313.50 451.50 330.76 450.82 C 332.86 450.89 334.96 451.03 337.07 451.17 C 337.02 452.40 336.99 453.63 336.96 454.87 C 336.93 457.99 337.11 461.10 337.34 464.21 C 338.31 483.99 338.78 503.79 339.70 523.57 C 285.72 523.67 231.73 523.70 177.75 523.49 C 173.85 523.30 169.95 523.38 166.05 523.39 C 167.64 501.80 169.67 480.24 171.23 458.64 Z" />
<path fill="#eaeaea" opacity="1.00" d=" M 1832.10 527.29 C 1865.51 513.93 1899.20 501.24 1932.73 488.15 C 1932.81 489.76 1932.90 491.37 1933.02 493.00 C 1934.31 504.70 1935.02 516.46 1935.98 528.20 C 1905.88 527.86 1875.77 527.84 1845.68 527.41 C 1841.15 527.19 1836.61 527.21 1832.10 527.29 Z" />
</g>
<g id="#000000ff">
<path fill="#000000" opacity="1.00" d=" M 198.86 166.08 C 207.09 152.92 215.44 139.84 223.45 126.55 C 228.14 126.73 232.79 126.02 237.47 125.92 C 225.74 145.27 213.48 164.30 201.66 183.59 C 200.87 184.79 199.96 185.91 199.12 187.08 C 198.73 180.39 198.27 173.68 198.41 166.99 L 198.86 166.08 Z" />
<path fill="#000000" opacity="1.00" d=" M 1581.82 135.36 C 1590.19 134.58 1598.51 133.27 1606.88 132.34 C 1595.03 164.18 1582.25 195.68 1570.19 227.44 C 1546.50 230.17 1522.74 232.37 1499.04 234.97 C 1497.68 234.83 1495.58 235.91 1494.69 234.62 C 1493.98 229.23 1493.70 223.79 1493.14 218.38 C 1493.66 218.08 1494.68 217.47 1495.19 217.16 C 1513.82 214.94 1532.52 213.21 1551.18 211.23 C 1561.09 185.64 1571.30 160.15 1580.87 134.44 C 1581.11 134.67 1581.58 135.13 1581.82 135.36 Z" />
<path fill="#000000" opacity="1.00" d=" M 259.32 133.88 C 277.75 162.94 295.69 192.32 314.03 221.44 C 317.19 226.98 320.55 232.42 324.13 237.70 C 323.48 238.72 322.24 241.09 321.11 239.21 C 299.67 205.00 278.51 170.59 256.97 136.44 C 257.75 135.58 258.53 134.73 259.32 133.88 Z" />
<path fill="#000000" opacity="1.00" d=" M 1890.56 133.77 C 1895.22 133.69 1899.88 133.67 1904.55 133.73 C 1908.49 174.01 1911.95 214.33 1916.00 254.60 C 1936.45 254.82 1956.89 255.57 1977.35 255.70 C 1979.32 259.43 1980.78 263.40 1982.57 267.23 L 1982.13 267.41 C 1961.27 275.98 1940.43 284.60 1919.52 293.03 C 1920.80 310.28 1922.89 327.46 1924.11 344.72 C 1831.09 369.77 1738.06 394.80 1645.08 419.98 C 1645.09 421.72 1645.12 423.46 1645.18 425.21 C 1645.26 430.88 1645.45 436.56 1645.32 442.23 C 1640.30 442.06 1635.29 442.28 1630.28 442.16 C 1630.35 430.85 1629.86 419.54 1629.92 408.23 C 1723.02 383.16 1816.09 358.01 1909.18 332.95 C 1903.09 267.31 1896.92 201.68 1890.78 136.05 C 1890.73 135.48 1890.62 134.34 1890.56 133.77 Z" />
<path fill="#000000" opacity="1.00" d=" M 449.93 137.24 C 453.60 137.28 457.26 137.28 460.93 137.24 C 463.22 164.15 465.07 191.10 467.27 218.02 C 467.69 221.33 467.05 224.70 467.75 227.98 C 471.96 277.62 475.40 327.33 479.42 376.99 C 479.73 380.94 479.97 384.90 480.19 388.86 C 455.76 388.85 431.34 388.84 406.91 388.86 C 406.69 384.68 406.59 380.49 406.62 376.30 C 427.23 376.28 447.84 376.30 468.45 376.29 C 462.31 296.61 456.30 216.91 449.93 137.24 Z" />
<path fill="#000000" opacity="1.00" d=" M 673.96 137.23 C 677.76 137.26 681.57 137.26 685.39 137.33 C 686.64 167.93 688.50 198.51 689.81 229.11 C 692.15 277.07 694.63 325.02 696.95 372.99 C 697.29 378.29 697.59 383.60 697.60 388.91 C 629.71 388.77 561.83 388.89 493.94 388.85 C 494.03 384.67 494.13 380.49 494.23 376.31 C 558.17 376.27 622.10 376.32 686.04 376.28 C 682.04 296.60 678.17 216.91 673.96 137.23 Z" />
<path fill="#000000" opacity="1.00" d=" M 878.30 137.23 C 881.33 137.22 884.37 137.27 887.41 137.41 C 894.35 169.53 901.68 201.58 908.68 233.69 C 909.94 240.16 911.51 246.57 912.83 253.03 C 908.60 254.51 904.33 255.87 900.06 257.23 C 905.20 277.60 910.57 297.90 915.71 318.27 C 916.27 320.42 917.02 322.52 917.76 324.62 C 917.85 327.24 917.83 329.86 917.67 332.48 C 910.89 351.07 905.50 370.15 899.02 388.85 C 836.18 388.89 773.35 388.79 710.51 388.90 C 710.70 384.67 711.08 380.46 711.70 376.29 C 770.24 376.32 828.77 376.25 887.31 376.32 C 890.81 366.11 893.99 355.79 897.38 345.55 C 900.36 335.67 904.10 325.99 906.69 316.02 C 900.92 292.15 894.48 268.41 888.45 244.59 C 892.64 243.15 896.87 241.79 901.12 240.51 C 899.27 229.97 896.56 219.59 894.36 209.11 C 888.98 185.16 883.82 161.15 878.30 137.23 Z" />
<path fill="#000000" opacity="1.00" d=" M 987.47 137.23 C 991.23 137.28 995.00 137.28 998.77 137.24 C 999.73 159.48 1000.39 181.74 1001.27 203.98 C 1001.59 216.65 1002.50 229.31 1002.22 241.99 C 1002.93 245.38 1001.84 248.88 1002.73 252.21 C 1004.87 297.73 1006.04 343.30 1007.89 388.84 C 981.65 388.87 955.42 388.88 929.18 388.83 C 929.28 384.65 929.34 380.48 929.32 376.30 C 951.69 376.28 974.07 376.31 996.44 376.29 C 993.47 296.60 990.67 216.91 987.47 137.23 Z" />
<path fill="#000000" opacity="1.00" d=" M 1094.00 137.24 C 1098.32 137.29 1102.64 137.28 1106.96 137.23 C 1103.77 170.69 1100.16 204.12 1096.65 237.55 C 1093.98 262.55 1091.32 287.54 1088.90 312.56 C 1084.56 312.69 1080.23 312.72 1075.89 312.72 C 1081.92 254.23 1088.15 195.75 1094.00 137.24 Z" />
<path fill="#000000" opacity="1.00" d=" M 1360.05 137.69 C 1362.93 137.85 1365.83 137.88 1368.73 137.70 C 1370.66 154.61 1371.64 171.63 1373.43 188.56 C 1342.32 189.53 1311.22 190.65 1280.11 191.42 C 1279.88 200.99 1280.49 210.58 1280.89 220.15 C 1279.22 220.15 1277.56 220.19 1275.93 220.22 C 1273.81 219.94 1271.72 219.70 1269.63 219.46 C 1269.15 205.87 1268.69 192.28 1268.29 178.68 C 1299.82 177.86 1331.34 176.70 1362.87 175.79 C 1361.94 163.09 1361.16 150.38 1360.05 137.69 Z" />
<path fill="#000000" opacity="1.00" d=" M 775.35 156.62 C 794.65 156.54 813.94 155.78 833.24 155.65 C 833.73 159.97 834.21 164.30 834.95 168.60 C 819.05 168.76 803.15 169.30 787.25 169.45 C 786.68 184.62 786.06 199.81 785.87 214.99 C 786.00 215.32 786.28 215.96 786.42 216.28 L 786.43 216.32 C 782.04 216.62 777.73 217.54 773.38 218.18 C 774.01 197.66 774.72 177.14 775.35 156.62 Z" />
<path fill="#000000" opacity="1.00" d=" M 550.95 175.92 C 571.69 176.52 592.43 177.03 613.16 177.67 C 613.21 181.80 613.09 185.94 613.32 190.08 C 596.52 189.64 579.73 189.12 562.93 188.73 C 563.16 201.32 563.45 213.92 563.60 226.51 C 563.99 258.41 564.81 290.31 565.30 322.22 C 561.47 322.38 557.63 322.42 553.81 322.61 C 552.81 273.71 552.02 224.81 550.95 175.92 Z" />
<path fill="#000000" opacity="1.00" d=" M 1600.11 213.99 C 1646.53 214.99 1692.98 215.46 1739.41 216.40 C 1739.35 220.23 1739.32 224.07 1739.53 227.91 C 1690.66 227.13 1641.80 226.25 1592.93 225.57 C 1594.98 221.50 1597.71 217.84 1600.11 213.99 Z" />
<path fill="#000000" opacity="1.00" d=" M 324.64 331.87 C 346.82 300.71 368.74 269.35 391.00 238.25 C 391.43 247.74 391.52 257.24 391.75 266.73 C 372.71 293.14 354.33 320.04 335.12 346.32 C 331.59 341.53 328.16 336.67 324.64 331.87 Z" />
<path fill="#000000" opacity="1.00" d=" M 1338.23 247.18 C 1338.52 244.24 1338.28 241.24 1339.23 238.38 C 1342.78 239.20 1346.44 239.23 1350.03 239.84 C 1350.06 240.59 1350.11 242.08 1350.14 242.82 C 1349.38 257.02 1349.53 271.25 1348.65 285.44 C 1328.09 286.20 1307.52 287.30 1286.97 288.31 C 1285.22 288.01 1284.38 289.34 1284.74 290.93 C 1284.77 300.51 1284.82 310.10 1285.11 319.68 C 1281.30 319.35 1277.49 319.07 1273.69 318.79 C 1273.62 304.43 1273.22 290.09 1273.30 275.73 C 1294.64 274.77 1315.98 273.73 1337.31 272.58 C 1337.69 264.11 1337.65 255.63 1338.23 247.18 Z" />
<path fill="#000000" opacity="1.00" d=" M 254.88 239.93 C 259.11 245.27 262.96 250.89 266.91 256.44 C 266.16 266.60 266.28 276.80 265.81 286.98 C 264.93 320.94 264.00 354.90 262.99 388.86 C 239.11 388.89 215.24 388.76 191.36 388.92 C 191.46 384.71 191.70 380.50 192.02 376.31 C 211.73 376.26 231.44 376.33 251.15 376.28 C 252.34 330.83 253.56 285.38 254.88 239.93 Z" />
<path fill="#000000" opacity="1.00" d=" M 1384.12 341.88 C 1481.84 311.24 1579.56 280.60 1677.21 249.76 C 1697.88 249.71 1718.60 250.54 1739.29 250.85 C 1739.37 254.01 1739.15 257.18 1739.54 260.32 C 1739.13 260.45 1738.30 260.69 1737.88 260.82 C 1666.56 282.54 1595.24 304.32 1523.92 326.05 C 1522.13 326.34 1521.25 327.99 1520.32 329.32 C 1498.07 362.90 1475.45 396.23 1453.27 429.84 C 1450.51 429.74 1447.72 429.51 1445.01 429.99 C 1442.67 432.52 1441.27 435.76 1439.06 438.39 C 1439.20 435.58 1439.54 432.79 1439.90 430.01 C 1412.53 430.52 1385.15 431.13 1357.78 431.86 C 1356.36 438.82 1356.19 446.03 1355.21 453.08 C 1353.98 464.86 1352.50 476.61 1351.45 488.41 C 1347.10 488.34 1342.76 488.41 1338.42 488.47 C 1341.46 460.32 1344.58 432.19 1347.59 404.03 C 1331.72 404.08 1315.85 404.01 1299.98 404.07 C 1299.73 413.82 1299.27 423.56 1299.20 433.31 C 1264.57 433.66 1229.94 434.84 1195.31 435.46 C 1203.11 469.17 1210.84 502.90 1218.69 536.60 C 1205.55 536.85 1192.40 536.85 1179.27 536.80 C 1178.49 532.57 1177.44 528.40 1176.73 524.17 C 1186.84 524.34 1196.96 524.14 1207.09 524.11 C 1198.07 484.73 1188.93 445.38 1179.85 406.02 C 1188.86 403.48 1197.70 400.38 1206.68 397.70 C 1215.13 394.85 1223.79 392.67 1232.12 389.46 C 1222.05 389.21 1211.97 389.18 1201.90 389.04 C 1201.97 384.88 1202.09 380.73 1202.23 376.59 C 1259.92 377.25 1317.62 378.13 1375.31 378.61 C 1374.36 365.34 1373.71 352.05 1372.82 338.77 C 1376.26 339.02 1379.71 339.29 1383.17 339.58 C 1383.40 340.15 1383.88 341.30 1384.12 341.88 M 1443.44 349.36 C 1443.22 373.30 1442.70 397.24 1442.43 421.18 C 1448.59 410.28 1453.70 398.79 1459.46 387.66 C 1468.69 369.04 1478.00 350.47 1487.16 331.83 C 1472.51 337.48 1457.99 343.46 1443.44 349.36 Z" />
<path fill="#000000" opacity="1.00" d=" M 771.21 274.08 C 793.11 273.04 815.00 271.96 836.90 270.91 C 837.61 275.33 838.47 279.72 839.08 284.15 C 820.41 284.67 801.78 286.03 783.11 286.56 C 782.17 302.03 782.07 317.55 781.56 333.04 L 781.55 333.28 C 777.49 333.68 773.44 334.24 769.40 334.75 C 770.03 314.52 770.56 294.30 771.21 274.08 Z" />
<path fill="#000000" opacity="1.00" d=" M 1164.12 323.02 C 1164.30 323.38 1164.65 324.09 1164.83 324.44 C 1167.81 324.55 1170.81 324.45 1173.81 324.36 C 1177.11 345.84 1180.27 367.34 1183.17 388.87 C 1129.53 388.83 1075.89 388.91 1022.25 388.82 C 1022.34 384.64 1022.47 380.46 1022.67 376.28 C 1072.36 376.31 1122.05 376.28 1171.75 376.30 C 1169.32 358.52 1166.58 340.79 1164.12 323.02 Z" />
<path fill="#000000" opacity="1.00" d=" M 475.65 417.17 C 480.05 417.21 484.45 417.23 488.86 417.23 C 487.79 426.78 486.90 436.35 485.64 445.88 C 484.42 459.92 482.92 473.96 481.15 487.95 C 484.80 488.29 488.47 488.03 492.13 488.34 C 484.09 489.25 476.03 487.93 467.98 488.49 C 470.33 464.70 473.12 440.95 475.65 417.17 Z" />
<path fill="#000000" opacity="1.00" d=" M 728.64 417.17 C 732.31 417.21 735.97 417.23 739.64 417.26 C 740.31 426.70 740.61 436.17 741.33 445.61 C 743.25 475.26 744.68 504.95 746.62 534.60 C 719.40 535.00 692.17 534.66 664.94 534.77 C 655.44 534.65 645.94 535.02 636.45 534.58 C 636.70 530.42 636.81 526.26 637.02 522.11 C 669.57 522.33 702.13 522.14 734.68 522.20 C 732.78 487.19 730.66 452.18 728.64 417.17 Z" />
<path fill="#000000" opacity="1.00" d=" M 942.22 417.47 C 945.07 417.52 947.93 417.53 950.79 417.49 C 952.93 425.03 954.18 432.78 956.13 440.37 C 958.47 450.73 961.09 461.05 962.90 471.51 C 960.96 472.06 959.03 472.64 957.11 473.22 C 959.82 484.45 963.15 495.57 965.57 506.84 C 962.85 516.21 959.57 525.42 956.66 534.74 C 924.12 534.77 891.57 534.69 859.03 534.78 C 859.23 530.53 859.66 526.30 860.12 522.08 C 888.37 522.29 916.63 522.14 944.88 522.15 C 947.79 512.76 951.20 503.49 953.82 494.02 C 951.42 482.83 948.17 471.79 945.40 460.68 C 947.41 459.94 949.43 459.22 951.45 458.48 C 948.22 444.84 945.35 431.12 942.22 417.47 Z" />
<path fill="#000000" opacity="1.00" d=" M 333.93 417.76 C 337.70 417.71 341.48 417.71 345.26 417.75 C 345.72 428.62 346.32 439.48 346.63 450.35 C 341.34 450.45 336.04 450.44 330.76 450.82 C 313.50 451.50 296.22 451.43 278.95 451.73 C 272.20 451.42 265.49 452.63 258.76 452.07 C 251.54 451.44 244.29 452.02 237.05 452.08 C 236.98 453.76 236.92 455.45 236.86 457.14 C 236.31 468.72 235.48 480.29 234.84 491.87 C 230.59 491.65 226.35 491.55 222.10 491.44 C 222.94 474.15 224.19 456.88 225.11 439.59 C 261.67 438.92 298.24 438.37 334.81 437.95 C 334.58 431.21 334.25 424.49 333.93 417.76 Z" />
<path fill="#000000" opacity="1.00" d=" M 887.95 420.06 C 896.57 420.00 905.18 419.57 913.80 419.64 C 914.26 423.64 914.76 427.63 915.29 431.63 C 914.96 431.77 914.31 432.05 913.98 432.19 C 909.24 432.71 904.43 432.08 899.72 432.89 L 899.27 433.03 C 899.03 437.05 899.41 441.09 899.00 445.10 C 898.54 445.25 897.61 445.56 897.14 445.71 C 893.87 446.62 890.47 446.89 887.15 447.57 C 887.22 438.39 887.64 429.22 887.95 420.06 Z" />
<path fill="#000000" opacity="1.00" d=" M 663.28 432.91 C 673.57 433.14 683.87 433.30 694.16 433.63 C 694.17 437.65 694.18 441.68 694.21 445.70 C 688.81 445.80 683.41 445.55 678.02 445.43 C 676.63 445.26 675.29 445.58 674.45 446.77 C 677.24 447.00 680.04 447.08 682.83 447.32 C 680.40 447.77 677.93 447.72 675.48 447.74 C 675.23 462.55 676.13 477.37 676.23 492.19 C 672.40 492.07 668.56 492.66 664.74 492.24 C 664.17 472.47 663.85 452.68 663.28 432.91 Z" />
<path fill="#000000" opacity="1.00" d=" M 1121.01 434.27 C 1132.01 434.19 1143.01 433.90 1154.01 433.76 C 1154.92 438.54 1155.75 443.34 1156.86 448.09 C 1156.73 447.71 1156.47 446.96 1156.34 446.59 C 1148.39 446.71 1140.43 446.65 1132.50 447.14 C 1131.34 453.95 1129.83 460.69 1128.63 467.49 C 1123.87 467.36 1119.12 467.77 1114.37 467.75 C 1116.59 456.59 1118.70 445.41 1121.01 434.27 Z" />
<path fill="#000000" opacity="1.00" d=" M 1927.68 452.95 C 1932.23 452.80 1936.80 452.79 1941.38 452.85 C 1942.31 460.46 1943.47 468.06 1944.07 475.71 C 1894.88 495.52 1845.79 515.60 1796.64 535.51 C 1794.19 536.52 1791.50 536.11 1788.95 536.12 C 1734.34 534.40 1679.69 535.29 1625.06 535.08 C 1566.28 535.07 1507.51 535.10 1448.74 535.06 C 1449.05 531.13 1449.43 527.21 1449.93 523.31 C 1562.61 523.55 1675.30 523.31 1787.98 523.43 C 1789.63 523.43 1791.32 523.33 1792.90 522.66 C 1838.41 504.09 1883.87 485.36 1929.42 466.89 C 1928.93 462.23 1928.40 457.57 1927.68 452.95 Z" />
<path fill="#000000" opacity="1.00" d=" M 337.34 464.21 C 341.21 464.15 345.08 464.09 348.95 464.05 C 349.86 488.14 350.85 512.22 351.59 536.31 C 293.19 536.26 234.79 536.23 176.40 536.15 C 176.72 531.91 177.04 527.67 177.75 523.49 C 231.73 523.70 285.72 523.67 339.70 523.57 C 338.78 503.79 338.31 483.99 337.34 464.21 Z" />
<path fill="#000000" opacity="1.00" d=" M 886.04 474.96 C 895.84 474.46 905.65 473.97 915.46 473.55 C 916.22 477.92 916.85 482.32 917.80 486.66 C 911.21 486.86 904.64 487.34 898.05 487.47 C 897.64 491.83 897.51 496.21 897.49 500.59 C 893.38 500.89 889.31 501.57 885.23 502.00 C 885.56 492.99 885.81 483.98 886.04 474.96 Z" />
<path fill="#000000" opacity="1.00" d=" M 270.18 480.64 C 277.76 481.28 285.36 481.46 292.94 481.99 C 292.80 485.79 292.71 489.60 292.54 493.41 C 287.04 493.19 281.55 493.07 276.06 492.91 C 273.87 492.79 271.69 492.63 269.51 492.50 C 269.73 488.54 269.96 484.59 270.18 480.64 Z" />
<path fill="#000000" opacity="1.00" d=" M 1933.02 493.00 C 1933.49 494.55 1933.89 496.14 1934.31 497.73 C 1936.81 496.63 1939.40 495.75 1942.01 494.92 C 1944.25 511.00 1946.51 527.07 1948.56 543.18 C 1907.05 540.65 1865.55 537.94 1824.04 535.50 C 1831.05 532.28 1838.79 530.90 1845.68 527.41 C 1875.77 527.84 1905.88 527.86 1935.98 528.20 C 1935.02 516.46 1934.31 504.70 1933.02 493.00 Z" />
<path fill="#000000" opacity="1.00" d=" M 1112.63 494.04 C 1128.83 494.39 1145.02 495.29 1161.22 495.89 C 1162.12 499.95 1162.92 504.04 1163.97 508.08 C 1150.93 507.69 1137.90 506.95 1124.87 506.61 C 1123.69 507.75 1124.00 509.68 1123.55 511.17 C 1122.13 519.81 1120.52 528.42 1119.07 537.05 C 1105.87 537.09 1092.67 537.09 1079.48 537.05 C 1080.34 532.81 1081.42 528.62 1082.25 524.37 C 1090.61 524.62 1098.97 524.40 1107.33 524.49 C 1109.14 514.35 1110.97 504.21 1112.63 494.04 Z" />
<path fill="#000000" opacity="1.00" d=" M 515.74 505.05 C 515.78 503.53 515.85 502.02 515.93 500.52 C 519.09 501.01 522.31 500.88 525.50 500.79 C 527.03 512.35 528.61 523.90 529.87 535.49 C 499.34 535.45 468.81 535.48 438.28 535.47 C 438.31 531.24 438.40 527.01 438.72 522.79 C 465.16 523.03 491.61 522.85 518.05 522.88 C 517.30 516.93 516.58 510.98 515.74 505.05 Z" />
<path fill="#000000" opacity="1.00" d=" M 1385.72 501.00 C 1389.05 500.83 1392.39 500.79 1395.74 500.89 C 1397.08 512.40 1398.70 523.89 1400.06 535.40 C 1369.50 535.55 1338.95 535.45 1308.39 535.45 C 1308.44 531.22 1308.53 527.00 1308.84 522.79 C 1335.41 523.06 1361.99 522.80 1388.57 522.92 C 1387.65 515.61 1386.84 508.28 1385.72 501.00 Z" />
</g>
<g id="#2b52b2ff">
<path fill="#2b52b2" opacity="1.00" d=" M 130.92 217.55 C 150.49 217.94 170.06 218.17 189.62 218.86 C 185.75 271.33 182.22 323.83 178.56 376.32 C 183.05 376.34 187.53 376.34 192.02 376.31 C 191.70 380.50 191.46 384.71 191.36 388.92 C 215.24 388.76 239.11 388.89 262.99 388.86 C 264.00 354.90 264.93 320.94 265.81 286.98 C 266.28 276.80 266.16 266.60 266.91 256.44 C 285.69 282.26 304.20 308.28 323.02 334.07 C 323.43 333.52 324.24 332.42 324.64 331.87 C 328.16 336.67 331.59 341.53 335.12 346.32 C 354.33 320.04 372.71 293.14 391.75 266.73 C 392.68 303.26 393.33 339.80 394.41 376.32 C 398.48 376.33 402.55 376.33 406.62 376.30 C 406.59 380.49 406.69 384.68 406.91 388.86 C 431.34 388.84 455.76 388.85 480.19 388.86 C 479.97 384.90 479.73 380.94 479.42 376.99 C 475.40 327.33 471.96 277.62 467.75 227.98 C 467.80 226.76 467.86 225.55 467.92 224.33 C 473.98 224.82 480.07 224.65 486.14 224.90 C 484.15 275.35 482.75 325.83 480.90 376.29 C 485.34 376.33 489.79 376.34 494.23 376.31 C 494.13 380.49 494.03 384.67 493.94 388.85 C 561.83 388.89 629.71 388.77 697.60 388.91 C 697.59 383.60 697.29 378.29 696.95 372.99 C 694.63 325.02 692.15 277.07 689.81 229.11 C 697.33 229.30 704.86 229.31 712.38 229.66 C 707.41 278.51 702.74 327.39 698.01 376.26 C 702.57 376.34 707.13 376.32 711.70 376.29 C 711.08 380.46 710.70 384.67 710.51 388.90 C 773.35 388.79 836.18 388.89 899.02 388.85 C 905.50 370.15 910.89 351.07 917.67 332.48 C 917.71 347.07 917.15 361.66 916.97 376.26 C 921.08 376.30 925.20 376.31 929.32 376.30 C 929.34 380.48 929.28 384.65 929.18 388.83 C 955.42 388.88 981.65 388.87 1007.89 388.84 C 1006.04 343.30 1004.87 297.73 1002.73 252.21 C 1002.85 246.61 1002.25 240.97 1003.00 235.40 C 1006.79 235.78 1010.61 235.77 1014.43 235.86 C 1012.74 282.65 1011.54 329.46 1010.06 376.25 C 1014.26 376.29 1018.46 376.28 1022.67 376.28 C 1022.47 380.46 1022.34 384.64 1022.25 388.82 C 1075.89 388.91 1129.53 388.83 1183.17 388.87 C 1180.27 367.34 1177.11 345.84 1173.81 324.36 C 1170.81 324.45 1167.81 324.55 1164.83 324.44 C 1164.65 324.09 1164.30 323.38 1164.12 323.02 C 1163.45 319.16 1162.93 315.27 1162.29 311.41 C 1137.83 311.84 1113.36 312.20 1088.90 312.56 C 1091.32 287.54 1093.98 262.55 1096.65 237.55 C 1128.69 238.27 1160.74 238.75 1192.78 239.65 C 1191.64 285.22 1190.67 330.80 1189.75 376.38 C 1193.90 376.47 1198.06 376.53 1202.23 376.59 C 1202.09 380.73 1201.97 384.88 1201.90 389.04 C 1211.97 389.18 1222.05 389.21 1232.12 389.46 C 1223.79 392.67 1215.13 394.85 1206.68 397.70 C 1197.70 400.38 1188.86 403.48 1179.85 406.02 C 1179.74 405.63 1179.52 404.85 1179.41 404.47 C 1151.22 404.43 1123.02 404.75 1094.83 404.81 C 1092.32 415.73 1089.69 426.62 1087.42 437.59 C 1044.65 439.18 1001.81 439.62 959.01 440.81 C 958.29 440.70 956.85 440.48 956.13 440.37 C 954.18 432.78 952.93 425.03 950.79 417.49 C 947.93 417.53 945.07 417.52 942.22 417.47 C 941.23 413.14 940.26 408.82 939.32 404.49 C 912.31 404.34 885.29 404.54 858.28 404.38 C 856.94 417.27 855.59 430.17 854.52 443.08 C 816.79 444.02 779.06 444.94 741.33 445.61 C 740.61 436.17 740.31 426.70 739.64 417.26 C 735.97 417.23 732.31 417.21 728.64 417.17 C 728.41 412.80 728.21 408.43 727.88 404.07 C 694.74 404.13 661.60 403.94 628.46 404.15 C 628.18 418.89 627.24 433.60 627.08 448.34 C 596.70 448.93 566.32 449.70 535.94 450.36 C 519.22 450.87 502.49 450.87 485.79 451.69 C 485.77 449.75 485.66 447.81 485.64 445.88 C 486.90 436.35 487.79 426.78 488.86 417.23 C 484.45 417.23 480.05 417.21 475.65 417.17 C 476.14 412.78 476.61 408.38 476.98 403.98 C 461.17 403.84 445.36 404.06 429.55 403.90 C 428.84 420.19 428.37 436.50 428.11 452.81 C 397.72 453.49 367.34 454.18 336.96 454.87 C 336.99 453.63 337.02 452.40 337.07 451.17 C 334.96 451.03 332.86 450.89 330.76 450.82 C 336.04 450.44 341.34 450.45 346.63 450.35 C 346.32 439.48 345.72 428.62 345.26 417.75 C 341.48 417.71 337.70 417.71 333.93 417.76 C 333.73 413.36 333.57 408.96 333.31 404.57 C 280.74 404.53 228.17 404.59 175.61 404.54 C 174.04 422.56 172.45 440.59 171.23 458.64 C 144.28 459.21 117.34 459.85 90.39 460.45 C 103.78 379.47 117.48 298.53 130.92 217.55 Z" />
<path fill="#2b52b2" opacity="1.00" d=" M 314.03 221.44 C 320.83 221.36 327.64 221.50 334.43 221.88 C 330.85 227.05 327.52 232.40 324.13 237.70 C 320.55 232.42 317.19 226.98 314.03 221.44 Z" />
<path fill="#2b52b2" opacity="1.00" d=" M 563.60 226.51 C 580.22 226.80 596.85 227.19 613.47 227.51 C 613.24 258.51 613.62 289.52 613.61 320.52 C 597.50 321.01 581.40 321.58 565.30 322.22 C 564.81 290.31 563.99 258.41 563.60 226.51 Z" />
<path fill="#2b52b2" opacity="1.00" d=" M 908.68 233.69 C 912.41 233.70 916.13 233.77 919.86 233.94 C 918.93 264.16 918.91 294.41 917.76 324.62 C 917.02 322.52 916.27 320.42 915.71 318.27 C 910.57 297.90 905.20 277.60 900.06 257.23 C 904.33 255.87 908.60 254.51 912.83 253.03 C 911.51 246.57 909.94 240.16 908.68 233.69 Z" />
<path fill="#2b52b2" opacity="1.00" d=" M 1350.14 242.82 C 1408.08 244.01 1466.02 245.23 1523.97 246.42 C 1575.05 247.58 1626.14 248.34 1677.21 249.76 C 1579.56 280.60 1481.84 311.24 1384.12 341.88 C 1383.88 341.30 1383.40 340.15 1383.17 339.58 C 1379.71 339.29 1376.26 339.02 1372.82 338.77 C 1372.50 334.72 1372.25 330.67 1372.12 326.61 C 1343.13 324.09 1314.10 322.10 1285.11 319.68 C 1284.82 310.10 1284.77 300.51 1284.74 290.93 C 1284.38 289.34 1285.22 288.01 1286.97 288.31 C 1307.52 287.30 1328.09 286.20 1348.65 285.44 C 1349.53 271.25 1349.38 257.02 1350.14 242.82 Z" />
<path fill="#2b52b2" opacity="1.00" d=" M 1919.52 293.03 C 1940.43 284.60 1961.27 275.98 1982.13 267.41 C 2001.46 315.87 2020.56 364.41 2039.88 412.87 C 2040.03 413.93 2041.19 415.24 2040.61 416.28 C 1908.80 419.24 1776.99 422.28 1645.18 425.21 C 1645.12 423.46 1645.09 421.72 1645.08 419.98 C 1738.06 394.80 1831.09 369.77 1924.11 344.72 C 1922.89 327.46 1920.80 310.28 1919.52 293.03 Z" />
<path fill="#2b52b2" opacity="1.00" d=" M 783.11 286.56 C 801.78 286.03 820.41 284.67 839.08 284.15 L 839.30 284.15 C 841.30 297.83 844.14 311.38 846.08 325.07 C 824.56 327.64 803.10 330.75 781.56 333.04 C 782.07 317.55 782.17 302.03 783.11 286.56 Z" />
<path fill="#2b52b2" opacity="1.00" d=" M 915.29 431.63 L 915.50 431.54 C 915.62 434.99 916.25 438.41 916.52 441.86 C 910.89 441.67 905.27 442.12 899.65 442.09 C 899.76 439.02 899.76 435.96 899.72 432.89 C 904.43 432.08 909.24 432.71 913.98 432.19 C 914.31 432.05 914.96 431.77 915.29 431.63 Z" />
<path fill="#2b52b2" opacity="1.00" d=" M 674.45 446.77 C 675.29 445.58 676.63 445.26 678.02 445.43 C 683.41 445.55 688.81 445.80 694.21 445.70 C 694.26 445.97 694.36 446.51 694.41 446.77 C 690.54 446.82 686.67 446.87 682.83 447.32 C 680.04 447.08 677.24 447.00 674.45 446.77 Z" />
<path fill="#2b52b2" opacity="1.00" d=" M 237.05 452.08 C 244.29 452.02 251.54 451.44 258.76 452.07 C 258.68 453.59 258.62 455.12 258.57 456.65 C 251.33 456.80 244.09 456.98 236.86 457.14 C 236.92 455.45 236.98 453.76 237.05 452.08 Z" />
</g>
</svg>
